<?xml version="1.0" encoding="UTF-8" standalone="no"?>
<svg
   xmlns:dc="http://purl.org/dc/elements/1.1/"
   xmlns:cc="http://creativecommons.org/ns#"
   xmlns:rdf="http://www.w3.org/1999/02/22-rdf-syntax-ns#"
   xmlns:svg="http://www.w3.org/2000/svg"
   xmlns="http://www.w3.org/2000/svg"
   id="svg8"
   version="1.1"
   viewBox="0 0 143.77998 105.14706"
   height="105.14706mm"
   width="143.77998mm">
  <defs
     id="defs2">
    <clipPath
       clipPathUnits="userSpaceOnUse"
       id="clipPath837">
      <path
         d="M 0,500 H 500 V 0 H 0 Z"
         id="path835" />
    </clipPath>
    <clipPath
       clipPathUnits="userSpaceOnUse"
       id="clipPath1053">
      <path
         d="M 0,500 H 500 V 0 H 0 Z"
         id="path1051" />
    </clipPath>
  </defs>
  <metadata
     id="metadata5">
    <rdf:RDF>
      <cc:Work
         rdf:about="">
        <dc:format>image/svg+xml</dc:format>
        <dc:type
           rdf:resource="http://purl.org/dc/dcmitype/StillImage" />
        <dc:title></dc:title>
      </cc:Work>
    </rdf:RDF>
  </metadata>
  <g
     transform="translate(-40.865682,-67.554179)"
     id="layer1">
    <g
       id="g823"
       transform="matrix(0.35277777,0,0,-0.35277777,27.088299,212.8373)">
      <g
         id="g831">
        <g
           id="g833"
           clip-path="url(#clipPath837)">
          <g
             id="g851"
             transform="translate(256.5176,141.5449)" />
          <g
             id="g1023"
             transform="translate(359.6768,292.0947)" />
          <g
             id="g2044">
            <g
               transform="translate(177.8267,178.7021)"
               id="g839">
              <path
                 id="path841"
                 style="fill:#ececec;fill-opacity:1;fill-rule:nonzero;stroke:none"
                 d="m 0,0 -33.527,-39.289 c -4.438,-5.2 -3.966,-12.981 1.068,-17.607 h 0.001 c 3.834,-3.523 9.426,-4.353 14.116,-2.089 17.075,8.241 56.285,27.346 55.503,28.646 C 36.57,-29.356 27.763,-14.147 20.663,-1.88 16.27,5.711 5.692,6.671 0,0" />
            </g>
            <g
               transform="translate(238.229,141.5449)"
               id="g843">
              <path
                 id="path845"
                 style="fill:#e6b68f;fill-opacity:1;fill-rule:nonzero;stroke:none"
                 d="m 0,0 -76.341,-24.905 c -6.993,-2.282 -14.513,1.538 -16.794,8.531 -2.282,6.993 1.538,14.513 8.531,16.794 L -8.262,25.325 C -1.269,27.607 6.25,23.787 8.532,16.794 10.813,9.801 6.994,2.281 0,0" />
            </g>
            <g
               transform="translate(316.9209,178.7021)"
               id="g847">
              <path
                 id="path849"
                 style="fill:#ececec;fill-opacity:1;fill-rule:nonzero;stroke:none"
                 d="m 0,0 33.526,-39.289 c 4.439,-5.2 3.966,-12.981 -1.068,-17.607 -3.834,-3.523 -9.426,-4.353 -14.116,-2.089 -17.075,8.241 -56.286,27.346 -55.503,28.646 0.591,0.983 9.398,16.192 16.498,28.459 C -16.271,5.711 -5.693,6.671 0,0" />
            </g>
            <path
               transform="translate(256.5176,141.5449)"
               id="path853"
               style="fill:#e6b68f;fill-opacity:1;fill-rule:nonzero;stroke:none"
               d="m 0,0 76.342,-24.905 c 6.993,-2.282 14.512,1.538 16.794,8.531 2.281,6.993 -1.538,14.513 -8.532,16.794 L 8.263,25.325 C 1.27,27.607 -6.25,23.787 -8.531,16.794 -10.813,9.801 -6.993,2.281 0,0" />
            <g
               transform="translate(298.6855,172.541)"
               id="g855">
              <path
                 id="path857"
                 style="fill:#ececec;fill-opacity:1;fill-rule:nonzero;stroke:none"
                 d="m 0,0 -97.153,1.979 v 12.493 c 0,20.397 20.744,39.423 41.141,39.423 h 15.316 C -22.577,53.895 0,34.736 0,16.616 Z" />
            </g>
            <g
               transform="translate(256.959,249.436)"
               id="g859">
              <path
                 id="path861"
                 style="fill:#e6b68f;fill-opacity:1;fill-rule:nonzero;stroke:none"
                 d="m 0,0 h -14.276 c -2.884,0 -5.222,-2.338 -5.222,-5.222 v -22.383 c 0,-6.826 5.534,-12.36 12.36,-12.36 6.826,0 12.36,5.534 12.36,12.36 V -5.222 C 5.222,-2.338 2.884,0 0,0" />
            </g>
            <g
               transform="translate(237.4609,226.4355)"
               id="g863">
              <path
                 id="path865"
                 style="fill:#dfa06e;fill-opacity:1;fill-rule:nonzero;stroke:none"
                 d="M 0,0 C 0,0 1,-7.279 12.36,-7.279 23.719,-7.279 24.721,0 24.721,0 Z" />
            </g>
            <g
               transform="translate(327.96,115.6543)"
               id="g915">
              <path
                 id="path917"
                 style="fill:#262626;fill-opacity:1;fill-rule:nonzero;stroke:none"
                 d="m 0,0 h -158.092 c -3.21,0 -5.813,2.603 -5.813,5.812 0,3.21 2.603,5.813 5.813,5.813 H 0 c 3.21,0 5.812,-2.603 5.812,-5.813 C 5.812,2.603 3.21,0 0,0" />
            </g>
            <g
               transform="translate(310.833,115.6543)"
               id="g919">
              <path
                 id="path921"
                 style="fill:#323232;fill-opacity:1;fill-rule:nonzero;stroke:none"
                 d="m 0,0 h -121.983 c -5.067,0 -9.175,4.107 -9.175,9.174 V 77.6 c 0,5.066 4.108,9.173 9.175,9.173 H 0 c 5.067,0 9.175,-4.107 9.175,-9.173 V 9.174 C 9.175,4.107 5.067,0 0,0" />
            </g>
            <g
               transform="translate(248.9136,167.8369)"
               id="g923">
              <path
                 id="path925"
                 style="fill:#dbdbdb;fill-opacity:1;fill-rule:nonzero;stroke:none"
                 d="m 0,0 c -4.85,0 -8.795,-3.945 -8.795,-8.796 0,-4.85 3.945,-8.795 8.795,-8.795 4.85,0 8.795,3.945 8.795,8.795 C 8.795,-3.945 4.85,0 0,0 m 0,-19.446 c -5.873,0 -10.651,4.778 -10.651,10.65 0,5.873 4.778,10.651 10.651,10.651 5.873,0 10.651,-4.778 10.651,-10.651 0,-5.872 -4.778,-10.65 -10.651,-10.65" />
            </g>
            <g
               transform="translate(387.8281,113.7715)"
               id="g927">
              <path
                 id="path929"
                 style="fill:#141414;fill-opacity:1;fill-rule:nonzero;stroke:none"
                 d="m 0,0 h -267.293 c -1.04,0 -1.884,0.844 -1.884,1.883 0,1.04 0.844,1.883 1.884,1.883 H 0 C 1.04,3.766 1.883,2.923 1.883,1.883 1.883,0.844 1.04,0 0,0" />
            </g>
            <g
               transform="translate(111.1421,113.7715)"
               id="g931">
              <path
                 id="path933"
                 style="fill:#141414;fill-opacity:1;fill-rule:nonzero;stroke:none"
                 d="m 0,0 h -29.946 c -1.04,0 -1.884,0.844 -1.884,1.883 0,1.04 0.844,1.883 1.884,1.883 H 0 C 1.04,3.766 1.883,2.923 1.883,1.883 1.883,0.844 1.04,0 0,0" />
            </g>
            <g
               transform="translate(428.0146,113.7715)"
               id="g935">
              <path
                 id="path937"
                 style="fill:#40bcdf;fill-opacity:1;fill-rule:nonzero;stroke:none"
                 d="m 0,0 h -29.947 c -1.039,0 -1.883,0.844 -1.883,1.883 0,1.04 0.844,1.883 1.883,1.883 H 0 C 1.039,3.766 1.883,2.923 1.883,1.883 1.883,0.844 1.039,0 0,0" />
            </g>
            <g
               transform="translate(444.7363,113.7715)"
               id="g939">
              <path
                 id="path941"
                 style="fill:#40bcdf;fill-opacity:1;fill-rule:nonzero;stroke:none"
                 d="m 0,0 h -6.412 c -1.039,0 -1.883,0.844 -1.883,1.883 0,1.04 0.844,1.883 1.883,1.883 H 0 C 1.039,3.766 1.883,2.923 1.883,1.883 1.883,0.844 1.039,0 0,0" />
            </g>
            <g
               transform="translate(70.3945,113.7715)"
               id="g943">
              <path
                 id="path945"
                 style="fill:#40bcdf;fill-opacity:1;fill-rule:nonzero;stroke:none"
                 d="m 0,0 h -10.177 c -1.04,0 -1.883,0.844 -1.883,1.883 0,1.04 0.843,1.883 1.883,1.883 H 0 C 1.04,3.766 1.883,2.923 1.883,1.883 1.883,0.844 1.04,0 0,0" />
            </g>
            <g
               transform="translate(43.582,113.7715)"
               id="g947">
              <path
                 id="path949"
                 style="fill:#40bcdf;fill-opacity:1;fill-rule:nonzero;stroke:none"
                 d="m 0,0 h -2.646 c -1.04,0 -1.882,0.844 -1.882,1.883 0,1.04 0.842,1.883 1.882,1.883 H 0 C 1.04,3.766 1.883,2.923 1.883,1.883 1.883,0.844 1.04,0 0,0" />
            </g>
            <g
               style="fill:#f2f2f2"
               transform="translate(153.14289,321.56656)"
               id="g951">
              <path
                 id="path953"
                 style="fill:#f2f2f2;fill-opacity:1;fill-rule:nonzero;stroke:none"
                 d="m 0,0 h -14.36 c -15.253,0 -27.618,-12.365 -27.618,-27.617 0,-15.223 12.319,-27.568 27.532,-27.614 3.085,-2.887 7.265,-6.906 7.266,-6.907 L 0,-55.233 v 0 c 15.252,0 27.617,12.364 27.617,27.616 C 27.617,-12.365 15.252,0 0,0" />
            </g>
            <g
               style="fill:#f2f2f2"
               transform="translate(253.64093,388.31218)"
               id="g955">
              <path
                 id="path957"
                 style="fill:#f2f2f2;fill-opacity:1;fill-rule:nonzero;stroke:none"
                 d="m 0,0 c 0,-12.986 -10.527,-23.513 -23.514,-23.513 -12.986,0 -23.513,10.527 -23.513,23.513 0,12.986 10.527,23.514 23.513,23.514 C -10.527,23.514 0,12.986 0,0" />
            </g>
            <g
               transform="matrix(0.99278292,0,0,1.03475,351.93156,363.85894)"
               id="g979"
               style="stroke-width:0.98663181;fill:#f2f2f2">
              <path
                 id="path981"
                 style="fill:#f2f2f2;fill-opacity:1;fill-rule:nonzero;stroke:none;stroke-width:0.98663181"
                 d="m 0,0 h -24.04 c -11.268,0 -20.401,-9.134 -20.401,-20.401 0,-11.267 9.133,-20.401 20.401,-20.401 h 2.507 l 5.166,-7.255 4.732,7.255 H 0 c 11.268,0 20.401,9.134 20.401,20.401 C 20.401,-9.134 11.268,0 0,0" />
            </g>
            <g
               transform="translate(239.49053,380.12908)"
               id="g1015">
              <path
                 id="path1017"
                 style="fill:#1898ce;fill-opacity:1;fill-rule:nonzero;stroke:none"
                 d="m 0,0 c 0,4.413 -3.577,7.99 -7.99,7.99 h -2.283 c -4.413,0 -7.991,-3.577 -7.991,-7.99 V -2.283 H 0 Z" />
            </g>
            <g
               transform="translate(230.35873,399.53438)"
               id="g1019">
              <path
                 id="path1021"
                 style="fill:#1898ce;fill-opacity:1;fill-rule:nonzero;stroke:none"
                 d="m 0,0 c 2.521,0 4.566,-2.044 4.566,-4.566 0,-2.522 -2.045,-4.566 -4.566,-4.566 -2.521,0 -4.565,2.044 -4.565,4.566 C -4.565,-2.044 -2.521,0 0,0" />
            </g>
            <g
               transform="translate(362.06257,238.38144)"
               id="g1027">
              <path
                 id="path1029"
                 style="fill:#40bcdf;fill-opacity:1;fill-rule:nonzero;stroke:none"
                 d="m 0,0 c 0,8.573 -6.95,15.522 -15.523,15.522 h -1.195 c -8.573,0 -15.523,-6.949 -15.523,-15.522 0,-7.586 5.444,-13.891 12.637,-15.245 l 3.168,-5.058 3.72,5.046 C -5.484,-13.934 0,-7.613 0,0" />
            </g>
            <g
               transform="translate(345.20027,235.80144)"
               id="g1031">
              <path
                 id="path1033"
                 style="fill:#ececec;fill-opacity:1;fill-rule:nonzero;stroke:none"
                 d="m 0,0 h 1.482 c 0.253,0 0.456,0.204 0.456,0.456 l 0.914,10.263 c 0,0.252 -0.205,0.456 -0.457,0.456 h -3.307 c -0.252,0 -0.456,-0.204 -0.456,-0.456 L -0.456,0.456 C -0.456,0.204 -0.252,0 0,0" />
            </g>
            <g
               transform="translate(345.94147,234.23304)"
               id="g1035">
              <path
                 id="path1037"
                 style="fill:#ececec;fill-opacity:1;fill-rule:nonzero;stroke:none"
                 d="m 0,0 c -1.228,0 -2.224,-0.995 -2.224,-2.224 0,-1.227 0.996,-2.222 2.224,-2.222 1.229,0 2.224,0.995 2.224,2.222 C 2.224,-0.995 1.229,0 0,0" />
            </g>
            <g
               transform="translate(391.4648,143.0898)"
               id="g1039">
              <path
                 id="path1041"
                 style="fill:#ececec;fill-opacity:1;fill-rule:nonzero;stroke:none"
                 d="M 0,0 C -0.362,0 -0.724,0.139 -0.999,0.414 L -8.775,8.19 c -0.552,0.551 -0.552,1.446 0,1.998 0.551,0.551 1.446,0.551 1.998,0 L 0.999,2.412 C 1.55,1.86 1.55,0.966 0.999,0.414 0.723,0.139 0.361,0 0,0" />
            </g>
            <g
               transform="translate(383.6885,143.0898)"
               id="g1043">
              <path
                 id="path1045"
                 style="fill:#ececec;fill-opacity:1;fill-rule:nonzero;stroke:none"
                 d="m 0,0 c -0.361,0 -0.723,0.139 -0.999,0.414 -0.552,0.552 -0.552,1.446 0,1.998 l 7.776,7.776 c 0.552,0.551 1.447,0.551 1.998,0 0.551,-0.552 0.551,-1.447 0,-1.998 L 0.999,0.414 C 0.724,0.139 0.361,0 0,0" />
            </g>
            <g
               id="g1373"
               transform="matrix(0.09602701,0,0,-0.09602701,128.08691,314.60761)"
               style="stroke-width:7.81030226">
              <path
                 id="path1359"
                 d="m 194.8,15 c -3.6,1.1 -1.4,2.8 -0.2,3.9 48.3,45.1 93.7,93.1 140.8,139.5 15.9,15.7 15.6,23.9 -0.7,39.5 -16.6,15.8 -33.3,31.5 -50.1,47.1 -2.5,2.3 -4.6,5.7 -9.7,4.9 -0.2,-11.8 3.5,-23.4 2.1,-35.4 -2.1,-17.3 -11.3,-28 -27.5,-33.6 -17.8,-6.1 -36.3,-7.5 -54.8,-9.1 C 177.4,170.3 160,169 143.5,163 100,147.3 89.3,109.3 119.6,74.2 c 17.3,-20 36.2,-38.7 56.3,-56 0.6,-0.5 1.2,-1.2 1.3,-1.9 0.1,-0.4 -0.8,-0.9 -1.3,-1.4 6.2,0.1 12.5,0.1 18.9,0.1 z"
                 class="st0"
                 style="fill:#e60049;stroke-width:7.81030226" />
              <path
                 id="path1361"
                 d="m 171,371.4 c 2.8,-6.2 -3.5,-7.5 -6,-10.1 C 122.9,318.8 80.6,276.6 38.4,234.4 20.6,216.6 20.7,208.7 39.1,191.2 c 16.3,-15.5 32.7,-30.8 50.7,-47.7 0.7,11.9 0.9,21.9 2,31.8 2.7,23.1 13,34.2 36.1,39.4 19.8,4.5 40.1,4.5 60.1,7 16.6,2 32.9,4.8 48,12.3 29.6,14.9 37.7,41.6 21.1,70.3 -11.3,19.5 -29.7,32.7 -44.4,49.2 -5.3,5.9 -13,9.7 -15.4,18 -8.9,-0.1 -17.6,-0.1 -26.3,-0.1 z"
                 class="st1"
                 style="fill:#0072bd;stroke-width:7.81030226" />
            </g>
            <g
               id="g1591"
               transform="matrix(0.09518258,0,0,-0.09518258,256.23579,383.73567)"
               style="stroke-width:7.87959337">
              <g
                 id="g1589"
                 style="stroke-width:7.87959337"
                 transform="translate(-85.464935,232.35779)">
                <path
                   id="path1399"
                   d="m 1030.4,284.9 c 6,-14.9 9,-30.3 7.8,-46.4 -2.5,-33.8 -25.1,-57.1 -56.9,-60.4 -17.1,-1.8 -33.3,1.9 -48.9,8.6 -1.4,0.6 -2.9,1.3 -4.3,1.9 -0.1,0 -0.2,0 -0.5,-0.2 0,-0.8 0,-1.7 0,-2.6 0,-21.4 0,-42.8 0,-64.3 0,-9.4 6.8,-16.2 16.1,-16.2 40.6,0 81.2,0.1 121.8,-0.1 8.6,0 16,8.5 16,16 -0.2,26.9 -0.1,53.8 -0.1,80.7 0,1 -0.4,2 0.4,2.9 0,5.7 0,11.3 0,17.3 -5.6,0 -10.8,0 -16.2,0 0,1.4 0,2.4 0,3.4 0,34.1 -0.1,68.3 0,102.4 0,2.6 -0.7,3.3 -3.3,3.2 -19.7,-0.1 -39.5,-0.1 -59.2,-0.1 -0.9,0 -1.8,0.3 -2.9,-0.5 1.7,-2 3.4,-3.9 5,-5.8 2.1,-2.6 4.6,-4.8 6.2,-7.8 2.5,-2.1 4.2,-4.8 5.6,-7.7 3.6,-4.7 6.6,-9.7 8.8,-15.2 2.3,-2.4 3.4,-5.8 4.6,-9.1 z"
                   class="st3"
                   style="fill:#6e2243;stroke-width:7.87959337" />
                <path
                   id="path1401"
                   d="m 855.9,331.3 c -11.8,0 -23.6,0 -35.6,0 0,-36.5 0,-72.8 0,-109.4 -5.4,0 -10.7,0 -16.3,0 0,-6.1 0,-11.8 0,-17.6 0,-27.1 0.2,-54.2 -0.1,-81.3 -0.1,-8.5 8.2,-18 17.4,-17.8 24.9,0.5 49.7,0.2 74.6,0.2 8.9,0 16.1,7.1 15.9,15.9 -0.5,20.9 -0.1,41.9 -0.2,62.8 0,3.9 -0.3,7.8 0.1,11.7 0.2,2.7 -1.5,3.7 -3.1,5 -1.9,0.9 -3.6,2.2 -4.9,3.9 -3.1,2.2 -5.9,4.6 -8.4,7.4 -1.8,1.2 -3.3,2.7 -4.5,4.4 -2.3,2 -4.2,4.4 -6.2,6.7 -2,1.6 -3.4,3.7 -4.9,5.7 -1.2,1.5 -2.3,3 -3.5,4.4 -1.7,1.3 -2.9,3.1 -3.9,5 -1.1,1.5 -2.2,3 -3.4,4.5 -1.6,1.7 -2.9,3.5 -3.8,5.6 -1.3,2 -2.6,4.1 -3.9,6.1 -1.3,1.9 -2.7,3.8 -3.4,6.1 -1.3,2.3 -2.6,4.7 -3.5,7.2 -1.3,1.9 -2.1,4 -2.6,6.3 -1.1,2.7 -2,5.5 -2.7,8.4 -1,2.1 -1.3,4.3 -1.5,6.5 -0.6,2.6 -0.6,5.2 -0.8,7.9 -0.3,2.4 -0.4,4.9 0.1,7.3 0.3,3.8 0.9,7.6 2.1,11.2 0.5,3 1.5,5.8 3.2,8.4 0.9,2.8 2.5,5.1 3.8,7.5 z"
                   class="st3"
                   style="fill:#6e2243;stroke-width:7.87959337" />
                <path
                   id="path1403"
                   d="m 872.2,238.4 c 1,-1.9 2.2,-3.6 3.9,-5 8,5 16,10 25.2,12.3 18.9,4.8 37.1,4.7 53.2,-8.6 2.9,-2.4 6.2,-4.5 9.9,-5.7 7.1,-2.2 13.5,2.6 13.6,9.9 0,4.6 -2.6,8 -5.5,10.9 -5.7,5.7 -6.2,12.6 -4.8,19.7 2.1,10.8 6.1,21 9.8,31.3 4.4,12.4 10.7,24.1 12.2,37.8 2.3,-2 4.2,-4.2 6.3,-6.3 1.4,-1.4 2,-3 2.1,-4.9 0.2,-4.8 -0.5,-9.4 -2,-14 -2.7,-8.2 -6.8,-15.7 -10.4,-23.4 -5.4,-11.4 -7.7,-23.1 -4.6,-35.7 1.7,-6.9 3,-14 2.5,-21.2 -0.3,-4.1 -1.7,-7.6 -4.4,-10.6 -5.2,-5.7 -12.1,-6.4 -19.7,-1.8 -6,3.6 -11.7,7.6 -17.6,11.3 -7.2,4.5 -14.8,7.4 -23.5,6.7 -8,-0.6 -15.8,-2.5 -23.2,-5.5 -5.2,-2.1 -10.4,-4.4 -15.6,-6.7 1.5,-2 2.9,-4.1 4.9,-5.7 0.3,0.3 0.6,0.8 0.9,1 6.2,2.9 12.5,5.7 19.1,7.7 13.4,4.2 25.9,3.6 37.5,-5.3 4.4,-3.4 9.3,-6.2 14.1,-9.1 5.4,-3.2 11.3,-5 17.6,-3.3 9.4,2.5 16.1,11.6 16.5,21.5 0.3,7.1 -0.9,14.1 -2.6,20.9 -2.6,10.4 -2,20.4 2.7,30.1 1.9,4 3.7,8.1 5.6,12.2 3.7,7.8 7.5,15.6 8.4,24.4 0.1,0.6 0.2,1.3 0.9,1.6 -1.7,1.9 -3.3,3.9 -5,5.8 1,0.8 2,0.5 2.9,0.5 19.7,0 39.5,0 59.2,0.1 2.6,0 3.3,-0.7 3.3,-3.2 -0.1,-34.1 0,-68.3 0,-102.4 0,-1 0,-2 0,-3.4 5.4,0 10.6,0 16.2,0 0,-6 0,-11.7 0,-17.3 10.1,0 20.3,0 30.9,0 0,50.6 0,101.2 0,151.7 -1.2,0 -2.4,0.1 -3.6,0.1 -44.8,0 -89.7,0 -134.5,0 -1.7,0 -3.3,0.1 -5,0.1 1.7,-5.7 2.1,-11.5 0.5,-17.3 -1.9,-7.2 -5.3,-13.9 -8.6,-20.6 -4.2,-8.7 -7.4,-17.6 -8.9,-27.2 -1.1,-6.9 -2.2,-13.9 -6,-20.1 -4.3,-7.1 -6.4,-7.1 -13.9,-6.3 -7.3,0.8 -14.5,2 -21.8,2.8 -11.2,1.2 -21.1,-1.6 -30,-8.5 -5.1,-4 -9.9,-8.5 -15.9,-11.2 1,-2.1 2.2,-4 3.8,-5.6 6.2,3.5 11.4,8.2 17,12.4 6.2,4.7 13.2,7 21.1,6.7 8.8,-0.3 17.5,-2 26.2,-3.1 5.7,-0.8 11.1,-0.1 15.2,4.3 3.3,3.6 5.6,7.8 7.2,12.5 2.2,6.2 2.9,12.6 4.1,19 1.8,9.4 5.8,18 10,26.5 2.8,5.8 5.4,11.6 6.9,17.9 0.9,3.8 0.7,7.7 0.8,11.6 5.1,-2.5 6,-4.2 5.4,-9.3 -1,-7.6 -3,-14.9 -6,-22 -6.1,-14.5 -11.2,-29.3 -15.2,-44.5 -2.7,-10.3 -1.2,-19.9 6.8,-27.8 1.2,-1.2 2.1,-2.6 2.8,-4.1 0.9,-1.7 0.3,-3.1 -0.7,-4.4 -1.1,-1.4 -2.4,-1.5 -4,-1 -3.5,1.2 -6.3,3.5 -9.3,5.6 -3.5,2.5 -6.6,5.7 -10.6,7.1 -11.8,4.2 -24,5.9 -36.4,4.1 -14,-2 -26.4,-7.9 -37.9,-16 z"
                   class="st1"
                   style="fill:#b7b2ac;stroke-width:7.87959337" />
                <path
                   id="path1407"
                   d="m 861.2,18.1 c 21,0.1 37.9,17 37.9,38 0,20.6 -17.2,37.7 -38,37.7 -20.8,0 -37.7,-17 -37.7,-37.9 0.1,-21 17,-37.9 37.8,-37.8 z"
                   class="st3"
                   style="fill:#6e2243;stroke-width:7.87959337" />
                <path
                   id="path1409"
                   d="m 1021.3,92.6 c -23.5,0 -47.1,0 -71.4,0 0,-6 0,-11.9 0,-17.8 0,-6.6 -0.1,-13.2 0,-19.8 0.2,-21 17.1,-37.6 38.1,-37.3 6.6,0.1 12.9,1.5 18.5,5.1 -0.8,0.6 -1.6,1.3 -2.4,1.9 -18,13.5 -20.2,39.9 -4.8,56.2 6.1,6.3 13.6,9.9 22,11.7 z"
                   class="st3"
                   style="fill:#6e2243;stroke-width:7.87959337" />
                <path
                   id="path1411"
                   d="m 1007.5,22.8 c 11.8,-8.3 30.1,-7.6 42.2,1.9 12.5,9.8 17.6,22.7 14.2,38.2 -3.4,15.7 -13.7,25.3 -29.3,29.1 -3,0.7 -6,1 -9.1,0.6 0,-11.9 0.1,-23.8 0.1,-35.7 0,-3.5 -0.1,-7.1 -1,-10.5 -2.6,-10.2 -8.5,-17.9 -17.1,-23.6 z"
                   class="st3"
                   style="fill:#6e2243;stroke-width:7.87959337" />
                <path
                   id="path1413"
                   d="m 1007.5,22.8 c 8.6,5.8 14.6,13.4 17.1,23.6 0.9,3.5 1,7 1,10.5 0,11.9 -0.1,23.8 -0.1,35.7 -1.4,0 -2.8,0 -4.1,0 -8.5,-1.7 -16,-5.3 -22,-11.7 -15.4,-16.3 -13.2,-42.7 4.8,-56.2 0.8,-0.6 1.6,-1.3 2.4,-1.9 0.2,-0.1 0.5,-0.1 0.9,0 z"
                   class="st1"
                   style="fill:#b7b2ac;stroke-width:7.87959337" />
                <path
                   id="path1417"
                   d="m 903.5,204.8 c 1.3,-1.7 3,-2.9 4.9,-3.9 1.8,2 3.9,2.4 6.6,2 5.1,-0.8 9.8,-2.9 14.4,-5.1 4.8,-2.3 9.5,-4.7 14.4,-6.8 6.7,-2.9 14,-3.5 21.2,-4.5 8.4,-1.1 16.9,-1 25.2,1.1 14.7,3.8 26.4,11.9 33.7,25.4 3.4,6.3 4.1,13.5 4.3,20.6 0.3,10.4 0.1,20.8 0.1,31.3 0,6 0.6,11.9 1.2,17.8 0.1,0.8 0.2,1.7 1,2.2 -1.2,3.3 -2.2,6.7 -4.5,9.5 -1.7,-0.7 -1.2,-2.3 -1.5,-3.5 -2.2,-9.6 -2.5,-19.3 -2.7,-29.1 -0.3,-9.9 0.8,-19.9 -0.1,-29.8 -0.6,-6.6 -1.1,-13.3 -5.1,-18.9 -8.7,-12.3 -20.8,-19.4 -35.9,-20.3 -16,-1 -31.5,1.5 -45.7,9.6 -5.4,3.1 -11.2,5.6 -17.3,6.7 -5.5,1 -10.6,0.8 -14.2,-4.3 z"
                   class="st1"
                   style="fill:#b7b2ac;stroke-width:7.87959337" />
                <path
                   id="path1433"
                   d="m 895.7,365.4 c -5.4,-2.5 -10.3,-5.9 -15.5,-8.9 -3.5,-3.5 -7.8,-6.2 -11.3,-9.7 -4.8,-4.8 -9.3,-9.7 -13,-15.4 -1.3,-2.4 -2.9,-4.7 -3.8,-7.3 9,3.4 17.3,8.2 25,13.9 10.8,8 19.9,17.8 27.6,28.9 0.4,0.6 1.3,1.2 0.5,2.2 -2.9,-1 -5.8,-2 -8.7,-3.1 -0.2,-0.5 -0.4,-0.6 -0.8,-0.6 z"
                   class="st0"
                   style="fill:#fefefe;stroke-width:7.87959337" />
                <path
                   id="path1435"
                   d="m 955.5,364.8 c -0.7,0.5 -1.7,0.5 -2.2,1.3 -1.9,0.6 -3.8,1.2 -5.7,1.8 1.2,-5.5 1.1,-11.2 0.4,-16.7 -1.7,-13.8 -5.7,-27 -10,-40.1 -3.8,-11.7 -11.6,-19.7 -23.7,-23 -6.8,-1.8 -13.8,-1.9 -20.7,-1.9 -4.9,0 -9.4,-1 -13.8,-2.8 -9.2,-3.9 -17.3,-9.7 -25.5,-15.3 0.9,-2.5 2.1,-4.9 3.5,-7.2 6.4,3.7 12.8,7.4 18.6,12.2 3.8,3.1 7.9,5.4 12.8,6.4 7.5,1.4 14.8,0.3 22.2,-1 11.8,-2 21.5,2.4 27.6,12.8 2.8,4.7 3.9,9.8 4.8,15 1.8,10 3.5,20.1 7.9,29.5 2.1,4.6 3.4,9.4 4.1,14.4 0.6,4.7 0.1,9.5 0.5,14.2 0,0 0,0 0,0 -0.3,0.1 -0.6,0.2 -0.8,0.4 z"
                   class="st0"
                   style="fill:#fefefe;stroke-width:7.87959337" />
                <path
                   id="path1437"
                   d="m 846.7,297.1 c 0.2,-2.6 0.2,-5.3 0.8,-7.9 0.5,0.1 0.9,0.1 1.4,0.3 10.8,4.5 21.9,8.1 32.9,12.2 13.8,5.2 26.7,11.5 36.2,23.4 8.7,10.9 13.5,22.7 12,36.8 -0.4,3.3 -1.1,6.6 -1.4,9.9 -0.7,0 -1.4,0.1 -2.1,0.1 -0.3,-2.6 -0.5,-5.2 -0.9,-7.7 -2,-12.6 -8.9,-22.5 -17.5,-31.4 -7.4,-7.7 -16.1,-13.8 -25.7,-18.5 -10.2,-5 -20.4,-9.9 -30.6,-14.8 -1.7,-0.8 -3.1,-2.2 -5.1,-2.4 z"
                   class="st0"
                   style="fill:#fefefe;stroke-width:7.87959337" />
                <path
                   id="path1439"
                   d="m 849,282.7 c 0.6,-2.9 1.5,-5.7 2.7,-8.4 4,2.6 7.9,5.2 11.9,7.7 6.8,4.4 14,8.2 22,10 6.9,1.5 13.9,0.4 20.8,1.2 11.7,1.3 20.1,6.7 24.6,17.7 2.8,6.9 4.5,14.2 6.5,21.3 2.5,8.9 4.7,18 4.6,27.4 0,3.4 -0.7,6.8 -1,10.2 -1.8,0.7 -3.7,1 -5.6,1.2 0.1,-0.7 0.2,-1.5 0.3,-2.2 1.2,-7.6 1.7,-15.2 -0.1,-22.7 -4.5,-19 -16.3,-32.6 -32.8,-41.9 -17.1,-9.6 -36,-14.2 -53.9,-21.5 z"
                   class="st0"
                   style="fill:#fefefe;stroke-width:7.87959337" />
                <path
                   id="path1441"
                   d="m 941,369.8 c 0.4,-3.4 1,-6.8 1,-10.2 0.1,-9.4 -2.1,-18.4 -4.6,-27.4 -2,-7.1 -3.6,-14.4 -6.5,-21.3 -4.5,-11 -12.9,-16.4 -24.6,-17.7 -6.9,-0.8 -14,0.3 -20.8,-1.2 -8,-1.8 -15.1,-5.6 -22,-10 -4,-2.5 -8,-5.2 -11.9,-7.7 0.4,-2.3 1.3,-4.4 2.6,-6.3 8.2,5.6 16.3,11.4 25.5,15.3 4.4,1.8 8.9,2.9 13.8,2.8 6.9,0 13.9,0 20.7,1.9 12.1,3.3 19.9,11.3 23.7,23 4.3,13.1 8.3,26.4 10,40.1 0.7,5.5 0.8,11.1 -0.4,16.7 -1.9,1.1 -4.1,1.9 -6.5,2 z"
                   class="st1"
                   style="fill:#b7b2ac;stroke-width:7.87959337" />
                <path
                   id="path1443"
                   d="m 848.9,315.6 c -1.2,-3.6 -1.7,-7.4 -2.1,-11.2 7.5,3.6 15.1,7.2 22.6,10.8 13.5,6.3 26.3,13.4 36.3,24.8 8.1,9.1 13.8,19.3 14,31.9 -1.7,-0.3 -3.5,0 -5.2,-0.7 0.3,-1 -0.5,-1.5 -0.9,-2.2 -5.7,-10.5 -14,-19 -22.2,-27.4 -6.8,-6.9 -14.9,-12.3 -23.4,-17 -6.1,-3.5 -12.4,-6.8 -19.1,-9 z"
                   class="st0"
                   style="fill:#fefefe;stroke-width:7.87959337" />
                <path
                   id="path1445"
                   d="m 849,282.7 c 17.9,7.3 36.8,11.9 53.7,21.5 16.6,9.3 28.4,22.9 32.8,41.9 1.8,7.5 1.3,15.1 0.1,22.7 -0.1,0.7 -0.2,1.5 -0.3,2.2 -2.2,0.7 -4.5,1 -6.8,0.9 0.3,-3.3 1,-6.6 1.4,-9.9 1.5,-14.1 -3.3,-25.9 -12,-36.8 -9.5,-11.9 -22.5,-18.2 -36.2,-23.4 -10.9,-4.1 -22.1,-7.7 -32.9,-12.2 -0.4,-0.2 -0.9,-0.2 -1.4,-0.3 0.3,-2.3 0.6,-4.6 1.6,-6.6 z"
                   class="st1"
                   style="fill:#b7b2ac;stroke-width:7.87959337" />
                <path
                   id="path1447"
                   d="m 919.8,371.8 c -0.2,-12.6 -5.9,-22.7 -14,-31.9 -10.1,-11.3 -22.9,-18.5 -36.3,-24.8 -7.6,-3.5 -15.1,-7.2 -22.6,-10.8 -0.5,-2.4 -0.3,-4.8 -0.1,-7.3 2,0.2 3.3,1.6 5,2.4 10.2,4.9 20.5,9.8 30.6,14.8 9.6,4.7 18.2,10.8 25.7,18.5 8.6,8.9 15.6,18.8 17.5,31.4 0.4,2.6 0.6,5.2 0.9,7.7 -2.2,0.3 -4.5,0.5 -6.7,0 z"
                   class="st1"
                   style="fill:#b7b2ac;stroke-width:7.87959337" />
                <path
                   id="path1449"
                   d="m 848.9,315.6 c 6.7,2.2 13,5.5 19.2,8.9 8.5,4.7 16.6,10 23.4,17 8.2,8.4 16.5,16.9 22.2,27.4 0.4,0.7 1.2,1.2 0.9,2.2 -3.3,-0.1 -6.4,-0.9 -9.5,-2.1 0.8,-1 -0.1,-1.5 -0.5,-2.2 -7.7,-11.1 -16.7,-20.9 -27.6,-28.9 -7.7,-5.7 -15.9,-10.6 -25,-13.9 -1.6,-2.6 -2.6,-5.4 -3.1,-8.4 z"
                   class="st1"
                   style="fill:#b7b2ac;stroke-width:7.87959337" />
                <path
                   id="path1545"
                   d="m 903.5,204.8 c 3.5,5.1 8.7,5.3 14,4.3 6.2,-1.1 11.9,-3.7 17.3,-6.7 14.3,-8.1 29.7,-10.6 45.7,-9.6 15.1,0.9 27.1,8 35.9,20.3 4,5.6 4.5,12.3 5.1,18.9 0.9,9.9 -0.2,19.9 0.1,29.8 0.3,9.7 0.5,19.5 2.7,29.1 0.3,1.2 -0.2,2.9 1.5,3.5 -2.2,5.5 -5.2,10.5 -8.8,15.2 -0.6,-5.6 -1.8,-11 -3.5,-16.3 -4.4,-13.8 -6.7,-27.8 -6.1,-42.2 0.3,-6.4 0.2,-12.9 0,-19.3 -0.2,-5.5 -1.2,-11 -4.3,-15.7 -8.3,-12.4 -23.3,-18.3 -38,-15.4 -7.8,1.5 -15.2,4.3 -22.3,7.8 -6.9,3.4 -14,6.5 -21.4,8.8 -9,2.9 -17.2,1.9 -24.6,-4.2 -0.5,-0.4 -1.1,-0.6 -1.7,-1 2.5,-2.7 5.4,-5.1 8.4,-7.3 z"
                   class="st0"
                   style="fill:#fefefe;stroke-width:7.87959337" />
                <path
                   id="path1547"
                   d="m 1005.2,325.1 c -0.7,-0.3 -0.9,-1 -0.9,-1.6 -0.9,-8.8 -4.7,-16.6 -8.4,-24.4 -1.9,-4 -3.7,-8.1 -5.6,-12.2 -4.7,-9.7 -5.2,-19.7 -2.7,-30.1 1.7,-6.8 2.8,-13.8 2.6,-20.9 -0.4,-10 -7.1,-19 -16.5,-21.5 -6.3,-1.7 -12.2,0.1 -17.6,3.3 -4.8,2.8 -9.6,5.7 -14.1,9.1 -11.6,8.9 -24.1,9.5 -37.5,5.3 -6.6,-2.1 -12.9,-4.8 -19.1,-7.7 -0.4,-0.2 -0.6,-0.6 -0.9,-1 1.9,-2.3 3.9,-4.7 6.2,-6.7 10.2,9.1 21.7,10.9 34.5,6.4 9.3,-3.2 17.9,-7.7 26.9,-11.6 8.6,-3.7 17.4,-6 26.8,-4.3 8.3,1.4 19.7,9.1 21.3,19.3 1.1,7 1.4,14.1 1,21.1 -0.7,12 -0.1,23.9 2.9,35.7 2.3,9.1 5.4,18 6.6,27.3 0.3,2.2 -0.5,4.6 0.8,6.7 -1.7,2.9 -4.2,5.2 -6.3,7.8 z"
                   class="st0"
                   style="fill:#fefefe;stroke-width:7.87959337" />
                <path
                   id="path1549"
                   d="m 1011.4,317.3 c -1.3,-2.1 -0.5,-4.5 -0.8,-6.7 -1.2,-9.4 -4.3,-18.2 -6.6,-27.3 -3,-11.7 -3.6,-23.6 -2.9,-35.7 0.4,-7.1 0.1,-14.1 -1,-21.1 -1.6,-10.2 -13,-17.8 -21.3,-19.3 -9.5,-1.6 -18.3,0.7 -26.8,4.3 -9,3.8 -17.6,8.4 -26.9,11.6 -12.8,4.4 -24.3,2.7 -34.5,-6.4 1.2,-1.7 2.7,-3.2 4.5,-4.4 0.6,0.3 1.2,0.6 1.7,1 7.4,6.1 15.7,7 24.6,4.2 7.4,-2.4 14.4,-5.5 21.4,-8.8 7.1,-3.5 14.5,-6.3 22.3,-7.8 14.8,-2.9 29.7,3 38,15.4 3.1,4.7 4.1,10.1 4.3,15.7 0.2,6.4 0.3,12.9 0,19.3 -0.6,14.5 1.7,28.5 6.1,42.2 1.7,5.3 2.9,10.7 3.5,16.3 -1.3,2.7 -3.1,5.4 -5.6,7.5 z"
                   class="st1"
                   style="fill:#b7b2ac;stroke-width:7.87959337" />
                <path
                   id="path1551"
                   d="m 879.6,229 c 5.2,2.2 10.4,4.5 15.6,6.7 7.4,3.1 15.2,4.9 23.2,5.5 8.6,0.7 16.3,-2.2 23.5,-6.7 5.9,-3.7 11.7,-7.7 17.6,-11.3 7.6,-4.6 14.5,-3.9 19.7,1.8 2.7,3 4.1,6.5 4.4,10.6 0.5,7.2 -0.8,14.3 -2.5,21.2 -3.2,12.6 -0.8,24.2 4.6,35.7 3.6,7.7 7.7,15.3 10.4,23.4 1.5,4.6 2.2,9.2 2,14 -0.1,2 -0.7,3.5 -2.1,4.9 -2.1,2.1 -4,4.4 -6.3,6.3 -1.6,-13.7 -7.8,-25.5 -12.2,-37.8 -3.7,-10.3 -7.7,-20.6 -9.8,-31.3 -1.4,-7.1 -0.9,-14 4.8,-19.7 2.9,-2.9 5.6,-6.3 5.5,-10.9 -0.1,-7.3 -6.5,-12.1 -13.6,-9.9 -3.7,1.1 -7,3.2 -9.9,5.7 -16.1,13.3 -34.3,13.4 -53.2,8.6 -9.2,-2.3 -17.2,-7.4 -25.2,-12.3 1.1,-1.5 2.3,-3 3.5,-4.5 z"
                   class="st0"
                   style="fill:#fefefe;stroke-width:7.87959337" />
                <path
                   id="path1553"
                   d="m 872.2,238.4 c 11.5,8.1 23.9,14 37.9,16.1 12.5,1.8 24.7,0.1 36.4,-4.1 4,-1.4 7.1,-4.7 10.6,-7.1 3,-2.1 5.8,-4.4 9.3,-5.6 1.6,-0.5 2.9,-0.4 4,1 1,1.3 1.6,2.7 0.7,4.4 -0.8,1.5 -1.6,2.9 -2.8,4.1 -8,7.9 -9.5,17.5 -6.8,27.8 4,15.2 9.1,30 15.2,44.5 3,7 5.1,14.3 6,22 0.6,5 -0.3,6.8 -5.4,9.3 -0.1,-4 0,-7.8 -0.8,-11.6 -1.5,-6.3 -4,-12.2 -6.9,-17.9 -4.2,-8.5 -8.2,-17.1 -10,-26.5 -1.2,-6.4 -2,-12.8 -4.1,-19 -1.6,-4.6 -4,-8.9 -7.2,-12.5 -4,-4.4 -9.5,-5.1 -15.2,-4.3 -8.7,1.2 -17.4,2.8 -26.2,3.1 -7.9,0.3 -14.9,-2 -21.1,-6.7 -5.6,-4.2 -10.9,-9 -17,-12.4 1.2,-1.6 2.3,-3.1 3.4,-4.6 z"
                   class="st0"
                   style="fill:#fefefe;stroke-width:7.87959337" />
                <path
                   id="path1555"
                   d="m 969.5,357 c -2.2,1.3 -4.5,2.6 -6.7,4 0.3,-10 -1.3,-19.6 -5.5,-28.8 -2.1,-4.5 -3.5,-9.2 -4.6,-14 -1.7,-7.7 -2.4,-15.6 -5,-23.1 -3.9,-11.3 -11.1,-19.5 -22.9,-22.7 -6.8,-1.9 -13.7,-0.6 -20.4,0.5 -9.6,1.6 -18,0.5 -25.7,-6.2 -5.3,-4.6 -11.6,-8 -17.5,-11.9 1.3,-2 2.6,-4.1 3.9,-6.1 6,2.8 10.8,7.3 15.9,11.2 8.9,6.9 18.7,9.7 30,8.5 7.3,-0.8 14.5,-2 21.8,-2.8 7.5,-0.8 9.6,-0.8 13.9,6.3 3.8,6.2 4.9,13.2 6,20.1 1.5,9.6 4.7,18.5 8.9,27.2 3.2,6.7 6.7,13.3 8.6,20.6 1.3,5.7 1,11.4 -0.7,17.2 z"
                   class="st0"
                   style="fill:#fefefe;stroke-width:7.87959337" />
                <path
                   id="path1557"
                   d="m 861.1,254.7 c 5.9,3.9 12.2,7.3 17.5,11.9 7.7,6.7 16.2,7.9 25.7,6.2 6.8,-1.1 13.6,-2.4 20.4,-0.5 11.9,3.2 19,11.4 22.9,22.7 2.6,7.5 3.2,15.4 5,23.1 1.1,4.8 2.6,9.5 4.6,14 4.2,9.1 5.8,18.8 5.5,28.8 -1.9,1.6 -4.2,2.7 -6.6,3.4 -0.4,-4.7 0.2,-9.5 -0.5,-14.2 -0.7,-5 -1.9,-9.9 -4.1,-14.4 -4.4,-9.4 -6,-19.4 -7.9,-29.5 -1,-5.2 -2.1,-10.4 -4.8,-15 -6.1,-10.4 -15.8,-14.8 -27.6,-12.8 -7.3,1.2 -14.7,2.4 -22.2,1 -4.9,-0.9 -9,-3.2 -12.8,-6.4 -5.8,-4.7 -12.2,-8.5 -18.6,-12.2 0.8,-2.2 2.2,-4.1 3.5,-6.1 z"
                   class="st1"
                   style="fill:#b7b2ac;stroke-width:7.87959337" />
              </g>
            </g>
            <g
               id="g1703"
               transform="matrix(1,0,0,1.0714646,158.49836,207.48704)"
               style="stroke-width:0.96607554">
              <path
                 d="M 0,0 C -0.362,0 -0.724,0.139 -0.999,0.414 L -8.775,8.19 c -0.552,0.551 -0.552,1.446 0,1.998 0.551,0.551 1.446,0.551 1.998,0 L 0.999,2.412 C 1.55,1.86 1.55,0.966 0.999,0.414 0.723,0.139 0.361,0 0,0"
                 style="fill:#ececec;fill-opacity:1;fill-rule:nonzero;stroke:none;stroke-width:0.96607554"
                 id="path1701" />
            </g>
            <g
               id="g1707"
               transform="matrix(1,0,0,1.0714646,150.72206,207.48704)"
               style="stroke-width:0.96607554">
              <path
                 d="m 0,0 c -0.361,0 -0.723,0.139 -0.999,0.414 -0.552,0.552 -0.552,1.446 0,1.998 l 7.776,7.776 c 0.552,0.551 1.447,0.551 1.998,0 0.551,-0.552 0.551,-1.447 0,-1.998 L 0.999,0.414 C 0.724,0.139 0.361,0 0,0"
                 style="fill:#ececec;fill-opacity:1;fill-rule:nonzero;stroke:none;stroke-width:0.96607554"
                 id="path1705" />
            </g>
            <g
               id="g1900"
               transform="matrix(0.78186556,0,0,0.78186556,-10.24985,62.297756)"
               style="stroke-width:1.2789923">
              <g
                 style="stroke-width:1.63272524"
                 transform="matrix(0.78334816,0,0,0.78334816,377.0991,279.56808)"
                 id="g244">
                <path
                   id="path246"
                   style="fill:#e6b68f;fill-opacity:1;fill-rule:nonzero;stroke:none;stroke-width:1.63272524"
                   d="M 0,0 C 0,0 4.382,9.737 8.764,9.25 13.146,8.763 16.28,3.003 13.893,-4.463 11.377,-12.326 4.11,-17.722 -1.732,-15.946 Z" />
              </g>
              <g
                 style="stroke-width:1.63272524"
                 transform="matrix(0.78334816,0,0,0.78334816,290.58347,278.64279)"
                 id="g248">
                <path
                   id="path250"
                   style="fill:#e6b68f;fill-opacity:1;fill-rule:nonzero;stroke:none;stroke-width:1.63272524"
                   d="M 0,0 C 0,0 -4.382,9.737 -8.764,9.25 -13.146,8.763 -16.28,3.003 -13.893,-4.463 -11.377,-12.326 -5.843,-17.722 0,-15.946 Z" />
              </g>
              <g
                 style="stroke-width:1.63272524"
                 transform="matrix(0.78334816,0,0,0.78334816,375.69612,250.3933)"
                 id="g252">
                <path
                   id="path254"
                   style="fill:#e6b68f;fill-opacity:1;fill-rule:nonzero;stroke:none;stroke-width:1.63272524"
                   d="m 0,0 c -1.037,-8.442 -6.566,-19.474 -10.715,-24.021 -4.149,-4.538 -20.061,-23.038 -24.895,-26.611 -4.844,-3.574 -25.589,-3.574 -31.119,-1.295 -5.539,2.269 -20.745,17.848 -30.775,28.88 -10.03,11.041 -12.881,31.489 -12.539,48.363 0.343,16.874 0,35.705 0,35.705 1.992,0.74 3.963,1.432 5.913,2.094 C -55.098,79.541 -16.42,69.561 -2.842,64 1.297,62.306 3.465,61.021 3.465,61.021 4.149,53.553 1.037,8.442 0,0" />
              </g>
              <g
                 style="stroke-width:1.63272524"
                 transform="matrix(0.78334816,0,0,0.78334816,351.35727,228.77931)"
                 id="g256">
                <path
                   id="path258"
                   style="fill:#40290f;fill-opacity:1;fill-rule:nonzero;stroke:none;stroke-width:1.63272524"
                   d="m 0,0 c -3.538,-10.086 -13.014,-10.625 -15.089,-7.705 -2.074,2.921 0,9.737 0,9.737 h -8.816 c 0.259,-3.894 0.777,-7.546 -1.556,-10.223 -2.334,-2.678 -9.8,-2.084 -13.305,1.052 -3.107,2.782 -3.552,7.55 -3.208,14.198 0.254,4.908 5.954,5.209 12.034,4.689 7.703,-0.66 14.013,-0.166 20.812,2.005 8.396,2.682 8.966,6.372 11.563,4.869 C 4.823,17.239 3.213,9.157 0,0 m 34.535,88.613 c 0,0 -2.168,1.285 -6.306,2.979 0.186,-8.636 1.156,-26.978 1.203,-38.928 C 29.498,35.667 26.45,23.802 21.251,14.69 16.667,6.659 8.51,1.789 8.51,1.789 c 2.593,6.329 3.371,21.421 0,25.072 -3.371,3.652 -9.336,0.731 -16.078,-4.381 -6.743,-5.112 -18.412,-4.138 -24.749,-3.895 -6.338,0.244 -9.222,1.46 -13.112,-1.947 -3.889,-3.408 -4.066,-10.789 -4.066,-18.578 -5.871,1.947 -12.095,8.432 -17.281,18.5 -5.187,10.058 -6.667,28.237 -7.01,42.511 -0.238,9.854 0.352,23.894 0.726,31.636 -1.95,-0.663 -3.92,-1.354 -5.913,-2.094 0,0 0.343,-18.831 0,-35.705 -0.341,-16.874 2.509,-37.322 12.539,-48.364 10.031,-11.031 25.237,-26.61 30.776,-28.879 5.529,-2.279 26.274,-2.279 31.118,1.295 4.834,3.573 20.746,22.073 24.895,26.611 4.149,4.547 9.678,15.579 10.715,24.021 1.037,8.442 4.15,53.553 3.465,61.021" />
              </g>
              <g
                 style="stroke-width:1.63272524"
                 transform="matrix(0.78334816,0,0,0.78334816,325.4792,269.17572)"
                 id="g260">
                <path
                   id="path262"
                   style="fill:#160c05;fill-opacity:1;fill-rule:nonzero;stroke:none;stroke-width:1.63272524"
                   d="m 0,0 c 0,-3.159 -2.562,-5.72 -5.721,-5.72 -3.159,0 -5.72,2.561 -5.72,5.72 0,3.159 2.561,5.72 5.72,5.72 C -2.562,5.72 0,3.159 0,0" />
              </g>
              <g
                 style="stroke-width:1.63272524"
                 transform="matrix(0.78334816,0,0,0.78334816,355.29844,270.16673)"
                 id="g264">
                <path
                   id="path266"
                   style="fill:#160c05;fill-opacity:1;fill-rule:nonzero;stroke:none;stroke-width:1.63272524"
                   d="m 0,0 c 0,-3.159 -2.562,-5.72 -5.721,-5.72 -3.159,0 -5.72,2.561 -5.72,5.72 0,3.159 2.561,5.721 5.72,5.721 C -2.562,5.721 0,3.159 0,0" />
              </g>
              <g
                 style="stroke-width:1.63272524"
                 transform="matrix(0.78334816,0,0,0.78334816,346.90346,277.4051)"
                 id="g268">
                <path
                   id="path270"
                   style="fill:#40290f;fill-opacity:1;fill-rule:nonzero;stroke:none;stroke-width:1.63272524"
                   d="m 0,0 24.375,2.85 c 0,0 1.542,7.355 -6.559,6.725 C 9.717,8.944 -1.174,7.417 -1.174,7.417 Z" />
              </g>
              <g
                 style="stroke-width:1.63272524"
                 transform="matrix(0.78334816,0,0,0.78334816,304.67152,279.32133)"
                 id="g272">
                <path
                   id="path274"
                   style="fill:#40290f;fill-opacity:1;fill-rule:nonzero;stroke:none;stroke-width:1.63272524"
                   d="M 0,0 23.35,-3.642 24.186,4.292 5.738,8.127 C 5.738,8.127 0.633,8.863 0,0" />
              </g>
              <g
                 style="stroke-width:1.63272524"
                 transform="matrix(0.78334816,0,0,0.78334816,330.43709,257.68862)"
                 id="g276">
                <path
                   id="path278"
                   style="fill:#845731;fill-opacity:1;fill-rule:nonzero;stroke:none;stroke-width:1.63272524"
                   d="m 0,0 c -1.413,-1.527 -2.809,-3.074 -3.85,-4.752 -0.506,-0.813 -0.943,-1.74 -0.921,-2.419 0.023,-0.332 0.122,-0.491 0.295,-0.662 0.121,-0.11 0.321,-0.269 0.475,-0.398 0.185,-0.114 0.353,-0.247 0.542,-0.348 1.504,-0.819 3.356,-1.055 5.157,-0.734 0.898,0.153 1.792,0.382 2.632,0.737 l 0.747,0.304 c 0.268,0.114 0.547,0.193 0.82,0.29 0.554,0.17 1.117,0.312 1.684,0.41 2.257,0.373 4.642,0.138 6.671,-0.401 0.171,-0.065 0.639,-0.059 1.032,-0.003 0.415,0.049 0.842,0.16 1.248,0.298 0.813,0.279 1.561,0.72 1.973,1.241 0.233,0.256 0.307,0.539 0.378,0.846 0.013,0.32 -0.036,0.679 -0.169,1.068 l -0.255,0.59 -0.369,0.647 c -0.257,0.428 -0.53,0.848 -0.81,1.268 -1.117,1.69 -2.416,3.289 -3.77,4.876 1.783,-1.1 3.393,-2.46 4.886,-3.975 0.367,-0.384 0.717,-0.788 1.063,-1.199 l 0.503,-0.635 c 0.165,-0.242 0.328,-0.508 0.489,-0.768 0.305,-0.548 0.502,-1.203 0.54,-1.921 -0.015,-0.714 -0.195,-1.47 -0.583,-2.051 -0.745,-1.207 -1.843,-1.908 -2.941,-2.37 -0.557,-0.233 -1.124,-0.421 -1.73,-0.539 -0.62,-0.109 -1.201,-0.221 -2.048,-0.082 l -0.238,0.041 -0.174,0.036 -0.348,0.07 c -0.233,0.045 -0.465,0.087 -0.7,0.119 -0.466,0.071 -0.934,0.116 -1.402,0.137 C 9.894,-10.231 8.966,-10.292 8.066,-10.45 7.615,-10.518 7.172,-10.62 6.735,-10.743 6.521,-10.816 6.3,-10.87 6.09,-10.956 l -0.694,-0.265 c -1.078,-0.413 -2.196,-0.715 -3.347,-0.828 -2.269,-0.226 -4.774,0.124 -6.758,1.575 -0.498,0.365 -0.918,0.753 -1.342,1.251 -0.517,0.6 -0.744,1.507 -0.619,2.204 0.249,1.398 0.983,2.287 1.681,3.124 C -3.505,-2.297 -1.821,-1.035 0,0" />
              </g>
              <g
                 style="stroke-width:1.63272524"
                 transform="matrix(0.78334816,0,0,0.78334816,320.99031,234.88434)"
                 id="g280">
                <path
                   id="path282"
                   style="fill:#845731;fill-opacity:1;fill-rule:nonzero;stroke:none;stroke-width:1.63272524"
                   d="m 0,0 c 3.576,-0.085 7.073,-0.1 10.546,0.016 3.469,0.154 6.903,0.425 10.269,0.996 1.682,0.286 3.347,0.639 4.986,1.081 1.636,0.449 3.235,1.004 4.821,1.621 1.559,0.67 3.089,1.424 4.566,2.314 1.484,0.886 2.863,1.945 4.276,3.06 C 38.562,7.538 37.4,6.129 36.089,4.853 34.742,3.625 33.261,2.518 31.663,1.604 28.464,-0.223 24.907,-1.36 21.315,-1.96 17.717,-2.558 14.068,-2.656 10.482,-2.327 6.901,-1.998 3.346,-1.312 0,0" />
              </g>
              <g
                 style="stroke-width:1.63272524"
                 transform="matrix(0.78334816,0,0,0.78334816,379.67632,279.80943)"
                 id="g284">
                <path
                   id="path286"
                   style="fill:#845731;fill-opacity:1;fill-rule:nonzero;stroke:none;stroke-width:1.63272524"
                   d="M 0,0 C 0.354,0.983 0.966,1.891 1.807,2.589 2.65,3.274 3.835,3.648 4.955,3.464 5.486,3.42 6.157,3.222 6.59,2.758 7.037,2.316 7.292,1.748 7.432,1.191 7.696,0.062 7.57,-1.053 7.347,-2.111 6.839,-4.225 5.804,-6.149 4.469,-7.802 c -1.328,-1.66 -3.008,-3.025 -4.874,-3.964 1.664,1.262 3.095,2.76 4.268,4.422 1.154,1.667 2.086,3.508 2.534,5.45 0.226,0.961 0.327,1.968 0.138,2.878 C 6.356,1.914 5.812,2.602 4.836,2.716 3.905,2.929 2.917,2.73 2.081,2.203 1.226,1.691 0.546,0.882 0,0" />
              </g>
              <g
                 style="stroke-width:1.63272524"
                 transform="matrix(0.78334816,0,0,0.78334816,287.44475,279.26626)"
                 id="g288">
                <path
                   id="path290"
                   style="fill:#845731;fill-opacity:1;fill-rule:nonzero;stroke:none;stroke-width:1.63272524"
                   d="M 0,0 C -0.545,0.882 -1.225,1.691 -2.081,2.203 -2.917,2.73 -3.905,2.929 -4.836,2.716 -5.812,2.602 -6.355,1.914 -6.535,0.984 c -0.189,-0.91 -0.088,-1.916 0.138,-2.878 0.448,-1.942 1.38,-3.783 2.535,-5.45 1.173,-1.662 2.604,-3.16 4.268,-4.422 -1.866,0.939 -3.547,2.304 -4.875,3.964 -1.334,1.653 -2.37,3.577 -2.877,5.691 -0.224,1.058 -0.35,2.173 -0.085,3.302 0.139,0.557 0.394,1.126 0.842,1.568 0.432,0.463 1.104,0.661 1.634,0.705 1.12,0.184 2.306,-0.19 3.149,-0.874 C -0.965,1.891 -0.354,0.983 0,0" />
              </g>
              <g
                 style="stroke-width:1.63272524"
                 transform="matrix(0.78334816,0,0,0.78334816,346.05815,257.26749)"
                 id="g292">
                <path
                   id="path294"
                   style="fill:#845731;fill-opacity:1;fill-rule:nonzero;stroke:none;stroke-width:1.63272524"
                   d="M 0,0 C 0.62,0.476 1.217,1.004 1.869,1.429 2.51,1.876 3.178,2.273 3.852,2.662 5.215,3.408 6.613,4.092 8.158,4.514 6.99,3.418 5.676,2.584 4.326,1.812 3.644,1.441 2.955,1.08 2.239,0.768 1.517,0.469 0.816,0.124 0,0" />
              </g>
              <g
                 style="stroke-width:1.63272524"
                 transform="matrix(0.78334816,0,0,0.78334816,349.40805,257.1742)"
                 id="g296">
                <path
                   id="path298"
                   style="fill:#845731;fill-opacity:1;fill-rule:nonzero;stroke:none;stroke-width:1.63272524"
                   d="M 0,0 C 1.276,1.126 2.693,1.99 4.144,2.792 5.609,3.568 7.108,4.28 8.75,4.729 7.476,3.601 6.059,2.737 4.606,1.937 3.141,1.163 1.642,0.45 0,0" />
              </g>
              <g
                 style="stroke-width:1.63272524"
                 transform="matrix(0.78334816,0,0,0.78334816,353.98955,257.86456)"
                 id="g300">
                <path
                   id="path302"
                   style="fill:#845731;fill-opacity:1;fill-rule:nonzero;stroke:none;stroke-width:1.63272524"
                   d="M 0,0 C 1.074,0.803 2.186,1.394 3.3,2 4.428,2.581 5.542,3.165 6.812,3.598 5.987,2.534 4.903,1.762 3.754,1.14 2.591,0.543 1.343,0.083 0,0" />
              </g>
              <g
                 style="stroke-width:1.63272524"
                 transform="matrix(0.78334816,0,0,0.78334816,357.3762,258.16106)"
                 id="g304">
                <path
                   id="path306"
                   style="fill:#845731;fill-opacity:1;fill-rule:nonzero;stroke:none;stroke-width:1.63272524"
                   d="M 0,0 C 0.999,0.673 1.99,1.151 2.979,1.668 3.982,2.16 4.955,2.674 6.091,3.077 5.429,2.063 4.46,1.341 3.419,0.8 2.364,0.285 1.209,-0.067 0,0" />
              </g>
              <g
                 style="stroke-width:1.63272524"
                 transform="matrix(0.78334816,0,0,0.78334816,326.40865,256.25964)"
                 id="g308">
                <path
                   id="path310"
                   style="fill:#845731;fill-opacity:1;fill-rule:nonzero;stroke:none;stroke-width:1.63272524"
                   d="M 0,0 C -0.817,0.124 -1.518,0.469 -2.239,0.769 -2.956,1.081 -3.644,1.442 -4.327,1.813 -5.676,2.584 -6.99,3.418 -8.158,4.515 -6.613,4.092 -5.215,3.409 -3.852,2.662 -3.178,2.274 -2.51,1.876 -1.87,1.429 -1.218,1.005 -0.62,0.476 0,0" />
              </g>
              <g
                 style="stroke-width:1.63272524"
                 transform="matrix(0.78334816,0,0,0.78334816,323.05803,256.16673)"
                 id="g312">
                <path
                   id="path314"
                   style="fill:#845731;fill-opacity:1;fill-rule:nonzero;stroke:none;stroke-width:1.63272524"
                   d="M 0,0 C -1.641,0.45 -3.14,1.163 -4.606,1.937 -6.058,2.737 -7.475,3.601 -8.75,4.729 -7.108,4.28 -5.608,3.568 -4.144,2.792 -2.693,1.99 -1.275,1.126 0,0" />
              </g>
              <g
                 style="stroke-width:1.63272524"
                 transform="matrix(0.78334816,0,0,0.78334816,318.47725,256.8571)"
                 id="g316">
                <path
                   id="path318"
                   style="fill:#845731;fill-opacity:1;fill-rule:nonzero;stroke:none;stroke-width:1.63272524"
                   d="M 0,0 C -1.344,0.083 -2.591,0.543 -3.755,1.14 -4.904,1.762 -5.988,2.534 -6.813,3.598 -5.542,3.165 -4.429,2.581 -3.3,2 -2.186,1.394 -1.075,0.803 0,0" />
              </g>
              <g
                 style="stroke-width:1.63272524"
                 transform="matrix(0.78334816,0,0,0.78334816,315.08989,257.15352)"
                 id="g320">
                <path
                   id="path322"
                   style="fill:#845731;fill-opacity:1;fill-rule:nonzero;stroke:none;stroke-width:1.63272524"
                   d="M 0,0 C -1.209,-0.067 -2.364,0.285 -3.418,0.8 -4.46,1.341 -5.429,2.063 -6.091,3.077 -4.954,2.674 -3.981,2.16 -2.979,1.668 -1.99,1.151 -0.999,0.673 0,0" />
              </g>
              <g
                 style="stroke-width:1.63272524"
                 transform="matrix(0.78334816,0,0,0.78334816,290.11534,289.92183)"
                 id="g324">
                <path
                   id="path326"
                   style="fill:#40290f;fill-opacity:1;fill-rule:nonzero;stroke:none;stroke-width:1.63272524"
                   d="m 0,0 c 0,0 -1.148,-34.852 -0.513,-40.552 0.635,-5.699 1.048,-25.387 9.443,-35.398 8.394,-10.01 23.412,-27.914 26.289,-29.974 2.878,-2.059 33.712,-12.07 47.992,6.95 14.28,19.02 26.698,27.363 27.954,45.548 1.256,18.186 1.041,54.891 1.041,54.891 0,0 -1.119,-58.141 -15.22,-74.952 -14.1,-16.811 -40.409,-33.161 -68.149,-13.14 C 21.028,-80.992 12.274,-73.711 9.21,-62.932 1.309,-35.137 0,0 0,0" />
              </g>
              <g
                 style="stroke-width:1.63272524"
                 transform="matrix(0.78334816,0,0,0.78334816,379.75817,305.58614)"
                 id="g328">
                <path
                   id="path330"
                   style="fill:#40290f;fill-opacity:1;fill-rule:nonzero;stroke:none;stroke-width:1.63272524"
                   d="m 0,0 c -0.01,-1.26 -0.11,-2.43 -0.25,-3.49 -0.49,-3.64 -1.47,-5.949 -1.47,-5.949 -0.32,0.119 -1.78,0.589 -4.14,1.239 -0.85,0.23 -1.785,0.776 -2.9,0.77 -8.689,-0.045 -26.798,-2.057 -47.343,-0.557 -22.211,1.621 -46.706,0.637 -53.126,-1.193 -1.189,-0.34 -1.83,-0.54 -1.83,-0.54 l -0.969,0.07 -3.201,0.211 c 0,0 -0.5,1.389 -0.849,3.71 -0.17,1.079 -0.3,2.349 -0.33,3.779 -0.03,1.31 0.019,2.74 0.2,4.27 0.029,0.25 0.06,0.5 0.1,0.76 0.099,0.71 0.21,1.45 0.349,2.2 0.051,0.27 0.101,0.531 0.151,0.8 1.488,7.239 4.99,17.214 14.038,24.991 9.186,7.897 24.065,13.541 44.788,13.541 20.369,0 34.706,-5.399 43.384,-13.078 C -4.187,23.383 -1.242,12.719 -0.311,5.17 -0.17,4.07 -0.08,3.01 -0.03,1.99 0.01,1.311 0.02,0.64 0,0" />
              </g>
              <g
                 style="stroke-width:1.63272524"
                 transform="matrix(0.78334816,0,0,0.78334816,379.75817,305.58614)"
                 id="g332">
                <path
                   id="path334"
                   style="fill:#e6b68f;fill-opacity:1;fill-rule:nonzero;stroke:none;stroke-width:1.63272524"
                   d="m 0,0 c -0.01,-1.26 -0.11,-2.43 -0.25,-3.49 -1.94,-2.21 -3.87,-3.699 -5.61,-4.71 -0.69,-0.4 -1.36,-0.73 -1.98,-0.989 -1.13,0.359 -2.261,0.699 -3.39,1.029 0.669,0.12 1.51,0.34 2.47,0.73 2.4,0.98 5.57,3.06 8.76,7.43" />
              </g>
              <g
                 style="stroke-width:1.63272524"
                 transform="matrix(0.78334816,0,0,0.78334816,300.87338,296.74245)"
                 id="g336">
                <path
                   id="path338"
                   style="fill:#e6b68f;fill-opacity:1;fill-rule:nonzero;stroke:none;stroke-width:1.63272524"
                   d="m 0,0 c -0.211,-0.07 -0.41,-0.13 -0.61,-0.19 -1.17,-0.36 -4.426,-0.71 -5.416,-1.05 -1.51,0.5 -3.34,1.36 -5.3,2.88 -1.31,0.99 -2.67,2.28 -4.05,3.92 -0.17,1.08 -0.3,2.35 -0.33,3.78 2.479,-3.67 5,-5.89 7.18,-7.23 3.52,-2.16 8.315,-2.01 8.515,-1.99 z" />
              </g>
              <g
                 style="stroke-width:1.63272524"
                 transform="matrix(0.78334816,0,0,0.78334816,322.23724,329.69626)"
                 id="g340">
                <path
                   id="path342"
                   style="fill:#40290f;fill-opacity:1;fill-rule:nonzero;stroke:none;stroke-width:1.63272524"
                   d="m 0,0 c 0,0 4.999,-1.872 7.166,8.397 h 23.708 c 0,0 -1.04,-7.397 5.126,-9.064 0,0 -20,-6.666 -36,0.667" />
              </g>
              <g
                 style="stroke-width:1.63272524"
                 transform="matrix(0.78334816,0,0,0.78334816,348.09384,345.4573)"
                 id="g344">
                <path
                   id="path346"
                   style="fill:#311e0c;fill-opacity:1;fill-rule:nonzero;stroke:none;stroke-width:1.63272524"
                   d="m 0,0 c -2.837,4.385 -8.478,1.201 -11.225,-0.756 2.381,2.795 0.142,7.258 0.142,7.258 -1.912,-4.398 -6.884,-7.076 -6.884,-7.076 -3.442,3.252 1.207,9.945 1.207,9.945 -6.824,-1.721 -10.538,-12.029 -10.538,-12.029 1.189,4.419 -2.095,10.117 -2.095,10.117 0,0 1.672,-3.634 -1.961,-8.959 -3.634,-5.326 -2.428,-13.749 -2.428,-13.749 l 0.051,0.011 c -0.022,-0.336 -0.051,-0.67 -0.051,-1.011 0,-1.6 0.24,-3.14 0.7,-4.59 v -0.01 c 1.95,-6.3 7.819,-10.87 14.76,-10.87 8.55,0 15.469,6.93 15.469,15.47 0,2.55 -0.62,4.96 -1.719,7.08 C -6.099,-4.496 0,0 0,0" />
              </g>
              <g
                 style="stroke-width:1.63272524"
                 transform="matrix(0.78334816,0,0,0.78334816,345.85925,332.72867)"
                 id="g348">
                <path
                   id="path350"
                   style="fill:#1b1006;fill-opacity:1;fill-rule:nonzero;stroke:none;stroke-width:1.63272524"
                   d="m 0,0 c 0,-8.54 -6.92,-15.47 -15.47,-15.47 -6.94,0 -12.809,4.57 -14.759,10.87 1.419,-1.94 5.319,-5.36 14.759,-3.9 C -5.449,-6.95 -2.16,1.55 -1.72,7.08 -0.62,4.96 0,2.55 0,0" />
              </g>
              <g
                 style="stroke-width:1.63272524"
                 transform="matrix(0.78334816,0,0,0.78334816,325.0692,324.19441)"
                 id="g352">
                <path
                   id="path354"
                   style="fill:#65605b;fill-opacity:1;fill-rule:nonzero;stroke:none;stroke-width:1.63272524"
                   d="M 0,0 C 0,0 13.002,-4.926 22.852,0.763 V -4.54 c 0,0 -14.863,-3.544 -22.852,0.425 z" />
              </g>
            </g>
          </g>
        </g>
      </g>
    </g>
  </g>
  <style
     type="text/css"
     id="style1357">
	.st0{fill:#E60049;}
	.st1{fill:#0072BD;}
</style>
  <style
     type="text/css"
     id="style1391">
	.st0{fill:#FEFEFE;}
	.st1{fill:#B7B2AC;}
	.st2{fill:#30416C;}
	.st3{fill:#6E2243;}
	.st4{fill:#7D5C7E;}
</style>
  <style
     type="text/css"
     id="style2506">
	.st0{fill:#E60049;}
	.st1{fill:#0072BD;}
</style>
</svg>
